<svg width="20" height="21" viewBox="0 0 20 21" fill="none" xmlns="http://www.w3.org/2000/svg">
<path d="M16.7003 6.18471L11.9003 2.82637C10.592 1.90971 8.58367 1.95971 7.32536 2.93471L3.15036 6.19304C2.31702 6.84304 1.65869 8.17637 1.65869 9.22633V14.9763C1.65869 17.1013 3.38369 18.8347 5.50869 18.8347H14.492C16.617 18.8347 18.342 17.1097 18.342 14.9847V9.33466C18.342 8.20971 17.617 6.82637 16.7003 6.18471ZM10.6253 15.5013C10.6253 15.843 10.342 16.1263 10.0003 16.1263C9.65867 16.1263 9.37533 15.843 9.37533 15.5013V13.0013C9.37533 12.6597 9.65867 12.3763 10.0003 12.3763C10.342 12.3763 10.6253 12.6597 10.6253 13.0013V15.5013Z" fill="#929EAE"/>
</svg>
