<svg width="20" height="21" viewBox="0 0 20 21" fill="none" xmlns="http://www.w3.org/2000/svg">
<path d="M13.4915 2.16675H6.50817C3.47484 2.16675 1.6665 3.97508 1.6665 7.00841V13.9834C1.6665 17.0251 3.47484 18.8334 6.50817 18.8334H13.4832C16.5165 18.8334 18.3248 17.0251 18.3248 13.9917V7.00841C18.3332 3.97508 16.5248 2.16675 13.4915 2.16675ZM14.3832 8.80008L12.4582 11.2834C12.2165 11.5917 11.8748 11.7917 11.4832 11.8334C11.0915 11.8834 10.7082 11.7751 10.3998 11.5334L8.87484 10.3334C8.8165 10.2834 8.74984 10.2834 8.7165 10.2917C8.68317 10.2917 8.62484 10.3084 8.57484 10.3751L6.5915 12.9501C6.4665 13.1084 6.28317 13.1917 6.09984 13.1917C5.9665 13.1917 5.83317 13.1501 5.7165 13.0584C5.4415 12.8501 5.3915 12.4584 5.59984 12.1834L7.58317 9.60842C7.82484 9.30008 8.1665 9.10008 8.55817 9.05008C8.9415 9.00008 9.33317 9.10842 9.6415 9.35008L11.1665 10.5501C11.2248 10.6001 11.2832 10.6001 11.3248 10.5917C11.3582 10.5917 11.4165 10.5751 11.4665 10.5084L13.3915 8.02508C13.5998 7.75008 13.9998 7.70008 14.2665 7.91675C14.5415 8.14175 14.5915 8.53341 14.3832 8.80008Z" fill="#929EAE"/>
</svg>
